<svg width="50" height="50" viewBox="0 0 50 50" fill="none" xmlns="http://www.w3.org/2000/svg">
<rect width="50" height="50" fill="#E5E5E5"/>
<rect width="50" height="50" fill="#131313"/>
<path d="M28.4602 27.514H19.3822C18.9968 28.4433 18.6682 29.2707 18.3962 29.996C18.1242 30.6987 17.8975 31.3107 17.7162 31.832C17.5575 32.3533 17.4442 32.7953 17.3762 33.158C17.3082 33.5207 17.2742 33.8153 17.2742 34.042C17.2742 34.6767 17.4782 35.1187 17.8862 35.368C18.2942 35.5947 18.9742 35.708 19.9262 35.708V37H11.6642V35.708C12.1855 35.64 12.6275 35.5493 12.9902 35.436C13.3755 35.3227 13.7042 35.164 13.9762 34.96C14.2708 34.756 14.5202 34.4953 14.7242 34.178C14.9508 33.838 15.1662 33.43 15.3702 32.954L24.2102 10.82H25.6722L33.3902 29.996C33.9115 31.2653 34.3648 32.2853 34.7502 33.056C35.1355 33.804 35.5095 34.3707 35.8722 34.756C36.2348 35.1413 36.6202 35.3907 37.0282 35.504C37.4588 35.6173 37.9688 35.674 38.5582 35.674V37H27.4742V35.674C28.6755 35.674 29.5028 35.5607 29.9562 35.334C30.4095 35.1073 30.6362 34.7333 30.6362 34.212C30.6362 33.9853 30.6248 33.7813 30.6022 33.6C30.5795 33.396 30.5342 33.1807 30.4662 32.954C30.4208 32.7273 30.3415 32.478 30.2282 32.206C30.1375 31.9113 30.0128 31.5713 29.8542 31.186L28.4602 27.514ZM20.0622 25.814H27.8142L24.0402 15.784L20.0622 25.814Z" fill="white"/>
</svg>
